<svg xmlns="http://www.w3.org/2000/svg" version="1.1" xmlns:xlink="http://www.w3.org/1999/xlink" xmlns:svgjs="http://svgjs.dev/svgjs" width="128" height="128" viewBox="0 0 128 128"><g transform="matrix(0.8046875,0,0,0.8046875,12.760752631578946,20.984992895372983)"><svg viewBox="0 0 95 80" data-background-color="#003366" preserveAspectRatio="xMidYMid meet" height="107" width="128" xmlns="http://www.w3.org/2000/svg" xmlns:xlink="http://www.w3.org/1999/xlink"><g id="tight-bounds" transform="matrix(1,0,0,1,-0.24049999999999727,-0.03323902083471353)"><svg viewBox="0 0 95.481 80.06647804166943" height="80.06647804166943" width="95.481"><g><svg viewBox="0 0 95.481 80.06647804166943" height="80.06647804166943" width="95.481"><g><svg viewBox="0 0 95.481 80.06647804166943" height="80.06647804166943" width="95.481"><g id="textblocktransform"><svg viewBox="0 0 95.481 80.06647804166943" height="80.06647804166943" width="95.481" id="textblock"><g><svg viewBox="0 0 95.481 80.06647804166943" height="80.06647804166943" width="95.481"><g><svg viewBox="0 0 95.481 80.06647804166943" height="80.06647804166943" width="95.481"><g><svg xmlns="http://www.w3.org/2000/svg" xmlns:xlink="http://www.w3.org/1999/xlink" version="1.1" x="0" y="0" viewBox="0.12899999999999956 41.437 511.742 429.126" enable-background="new 0 0 512 512" xml:space="preserve" height="80.06647804166943" width="95.481" class="icon-icon-0" data-fill-palette-color="accent" id="icon-0"><g fill="#f35303" data-fill-palette-color="accent"><g fill="#f35303" data-fill-palette-color="accent"><g fill="#f35303" data-fill-palette-color="accent"><path d="M507.873 126.729H4.127c-2.21 0-3.998-1.788-3.998-3.998s1.788-3.998 3.998-3.998h503.746c2.209 0 3.998 1.788 3.998 3.998S510.082 126.729 507.873 126.729z" fill="#f35303" data-fill-palette-color="accent"></path></g></g><g fill="#f35303" data-fill-palette-color="accent"><g fill="#f35303" data-fill-palette-color="accent"><path d="M507.873 166.709H4.127c-2.21 0-3.998-1.788-3.998-3.998s1.788-3.998 3.998-3.998h503.746c2.209 0 3.998 1.788 3.998 3.998S510.082 166.709 507.873 166.709z" fill="#f35303" data-fill-palette-color="accent"></path></g></g><g fill="#f35303" data-fill-palette-color="accent"><g fill="#f35303" data-fill-palette-color="accent"><g fill="#f35303" data-fill-palette-color="accent"><path d="M220.014 262.66c-2.21 0-3.998-1.787-3.998-3.998 0-11.021 8.968-19.989 19.99-19.989 2.21 0 3.998 1.788 3.998 3.998s-1.788 3.998-3.998 3.998c-6.614 0-11.994 5.38-11.994 11.993C224.012 260.873 222.224 262.66 220.014 262.66z" fill="#f35303" data-fill-palette-color="accent"></path></g></g><g fill="#f35303" data-fill-palette-color="accent"><g fill="#f35303" data-fill-palette-color="accent"><path d="M283.979 262.652c-2.211 0-3.998-1.787-3.998-3.998 0-6.613-5.381-11.993-11.994-11.993-2.211 0-3.998-1.788-3.998-3.998s1.787-3.998 3.998-3.998c11.018 0 19.99 8.968 19.99 19.989C287.977 260.865 286.188 262.652 283.979 262.652z" fill="#f35303" data-fill-palette-color="accent"></path></g></g><g fill="#f35303" data-fill-palette-color="accent"><g fill="#f35303" data-fill-palette-color="accent"><path d="M267.986 246.669h-31.98c-2.21 0-3.998-1.788-3.998-3.998s1.788-3.998 3.998-3.998h31.98c2.209 0 3.998 1.788 3.998 3.998S270.195 246.669 267.986 246.669z" fill="#f35303" data-fill-palette-color="accent"></path></g></g><g fill="#f35303" data-fill-palette-color="accent"><g fill="#f35303" data-fill-palette-color="accent"><path d="M204.022 286.648c-2.209 0-3.998-1.788-3.998-3.998 0-11.025 8.968-19.99 19.99-19.99 2.21 0 3.998 1.789 3.998 3.998 0 2.21-1.788 3.998-3.998 3.998-6.614 0-11.994 5.381-11.994 11.994C208.02 284.86 206.232 286.648 204.022 286.648z" fill="#f35303" data-fill-palette-color="accent"></path></g></g><g fill="#f35303" data-fill-palette-color="accent"><g fill="#f35303" data-fill-palette-color="accent"><path d="M299.971 286.641c-2.211 0-3.998-1.788-3.998-3.998 0-6.613-5.381-11.994-11.994-11.994-2.211 0-3.998-1.788-3.998-3.998 0-2.209 1.787-3.998 3.998-3.998 11.018 0 19.99 8.965 19.99 19.99C303.969 284.853 302.18 286.641 299.971 286.641z" fill="#f35303" data-fill-palette-color="accent"></path></g></g><g fill="#f35303" data-fill-palette-color="accent"><g fill="#f35303" data-fill-palette-color="accent"><path d="M283.979 270.656h-63.964c-2.21 0-3.998-1.788-3.998-3.998 0-2.209 1.788-3.998 3.998-3.998h63.964c2.209 0 3.998 1.789 3.998 3.998C287.977 268.868 286.188 270.656 283.979 270.656z" fill="#f35303" data-fill-palette-color="accent"></path></g></g><g fill="#f35303" data-fill-palette-color="accent"><g fill="#f35303" data-fill-palette-color="accent"><path d="M188.03 310.637c-2.209 0-3.998-1.789-3.998-3.998 0-11.025 8.968-19.99 19.989-19.99 2.21 0 3.998 1.788 3.998 3.998s-1.788 3.998-3.998 3.998c-6.613 0-11.994 5.38-11.994 11.994C192.028 308.848 190.24 310.637 188.03 310.637z" fill="#f35303" data-fill-palette-color="accent"></path></g></g><g fill="#f35303" data-fill-palette-color="accent"><g fill="#f35303" data-fill-palette-color="accent"><path d="M315.961 310.637c-2.209 0-3.998-1.789-3.998-3.998 0-6.614-5.379-11.994-11.992-11.994-2.211 0-3.998-1.788-3.998-3.998s1.787-3.998 3.998-3.998c11.018 0 19.988 8.965 19.988 19.99C319.959 308.848 318.172 310.637 315.961 310.637z" fill="#f35303" data-fill-palette-color="accent"></path></g></g><g fill="#f35303" data-fill-palette-color="accent"><g fill="#f35303" data-fill-palette-color="accent"><path d="M299.971 294.645h-95.949c-2.209 0-3.998-1.788-3.998-3.998s1.788-3.998 3.998-3.998h95.949c2.209 0 3.998 1.788 3.998 3.998S302.18 294.645 299.971 294.645z" fill="#f35303" data-fill-palette-color="accent"></path></g></g><g fill="#f35303" data-fill-palette-color="accent"><g fill="#f35303" data-fill-palette-color="accent"><path d="M172.039 334.624c-2.21 0-3.998-1.788-3.998-3.998 0-11.025 8.968-19.989 19.99-19.989 2.21 0 3.998 1.788 3.998 3.998 0 2.209-1.788 3.998-3.998 3.998-6.614 0-11.994 5.38-11.994 11.993C176.037 332.836 174.249 334.624 172.039 334.624z" fill="#f35303" data-fill-palette-color="accent"></path></g></g><g fill="#f35303" data-fill-palette-color="accent"><g fill="#f35303" data-fill-palette-color="accent"><path d="M331.953 334.624c-2.209 0-3.998-1.788-3.998-3.998 0-6.613-5.379-11.993-11.994-11.993-2.209 0-3.998-1.789-3.998-3.998 0-2.21 1.789-3.998 3.998-3.998 11.02 0 19.99 8.964 19.99 19.989C335.951 332.836 334.164 334.624 331.953 334.624z" fill="#f35303" data-fill-palette-color="accent"></path></g></g><g fill="#f35303" data-fill-palette-color="accent"><g fill="#f35303" data-fill-palette-color="accent"><path d="M315.961 318.633H188.03c-2.209 0-3.998-1.789-3.998-3.998 0-2.21 1.788-3.998 3.998-3.998h127.931c2.211 0 3.998 1.788 3.998 3.998C319.959 316.844 318.172 318.633 315.961 318.633z" fill="#f35303" data-fill-palette-color="accent"></path></g></g><g fill="#f35303" data-fill-palette-color="accent"><g fill="#f35303" data-fill-palette-color="accent"><path d="M267.986 470.556c-2.211 0-3.998-1.788-3.998-3.998s1.787-3.998 3.998-3.998c6.613 0 11.994-5.38 11.994-11.994 0-2.21 1.787-3.997 3.998-3.997 2.209 0 3.998 1.787 3.998 3.997C287.977 461.592 279.004 470.556 267.986 470.556z" fill="#f35303" data-fill-palette-color="accent"></path></g></g><g fill="#f35303" data-fill-palette-color="accent"><g fill="#f35303" data-fill-palette-color="accent"><path d="M236.002 470.563c-11.022 0-19.99-8.964-19.99-19.99 0-2.21 1.788-3.997 3.998-3.997s3.998 1.787 3.998 3.997c0 6.614 5.38 11.994 11.994 11.994 2.21 0 3.998 1.788 3.998 3.998S238.212 470.563 236.002 470.563z" fill="#f35303" data-fill-palette-color="accent"></path></g></g><g fill="#f35303" data-fill-palette-color="accent"><g fill="#f35303" data-fill-palette-color="accent"><path d="M267.986 470.556h-31.984c-2.21 0-3.998-1.788-3.998-3.998s1.788-3.998 3.998-3.998h31.984c2.209 0 3.998 1.788 3.998 3.998S270.195 470.556 267.986 470.556z" fill="#f35303" data-fill-palette-color="accent"></path></g></g><g fill="#f35303" data-fill-palette-color="accent"><g fill="#f35303" data-fill-palette-color="accent"><path d="M283.979 446.568c-2.211 0-3.998-1.789-3.998-3.998 0-2.211 1.787-3.998 3.998-3.998 6.613 0 11.986-5.381 11.986-11.994 0-2.21 1.787-3.998 3.998-3.998 2.209 0 3.998 1.788 3.998 3.998C303.961 437.604 294.996 446.568 283.979 446.568z" fill="#f35303" data-fill-palette-color="accent"></path></g></g><g fill="#f35303" data-fill-palette-color="accent"><g fill="#f35303" data-fill-palette-color="accent"><path d="M220.01 446.576c-11.021 0-19.99-8.965-19.99-19.99 0-2.21 1.788-3.998 3.998-3.998 2.21 0 3.998 1.788 3.998 3.998 0 6.613 5.38 11.994 11.994 11.994 2.21 0 3.998 1.787 3.998 3.998C224.008 444.787 222.22 446.576 220.01 446.576z" fill="#f35303" data-fill-palette-color="accent"></path></g></g><g fill="#f35303" data-fill-palette-color="accent"><g fill="#f35303" data-fill-palette-color="accent"><path d="M283.979 446.568H220.01c-2.21 0-3.998-1.789-3.998-3.998 0-2.211 1.788-3.998 3.998-3.998h63.968c2.209 0 3.998 1.787 3.998 3.998C287.977 444.779 286.188 446.568 283.979 446.568z" fill="#f35303" data-fill-palette-color="accent"></path></g></g><g fill="#f35303" data-fill-palette-color="accent"><g fill="#f35303" data-fill-palette-color="accent"><path d="M299.963 422.58c-2.211 0-3.998-1.788-3.998-3.998s1.787-3.998 3.998-3.998c6.613 0 11.992-5.38 11.992-11.994 0-2.21 1.789-3.998 3.998-3.998 2.211 0 3.998 1.788 3.998 3.998C319.951 413.615 310.988 422.58 299.963 422.58z" fill="#f35303" data-fill-palette-color="accent"></path></g></g><g fill="#f35303" data-fill-palette-color="accent"><g fill="#f35303" data-fill-palette-color="accent"><path d="M204.018 422.588c-11.021 0-19.989-8.965-19.989-19.99 0-2.21 1.788-3.998 3.998-3.998 2.21 0 3.998 1.788 3.998 3.998 0 6.614 5.38 11.994 11.994 11.994 2.21 0 3.998 1.788 3.998 3.998S206.228 422.588 204.018 422.588z" fill="#f35303" data-fill-palette-color="accent"></path></g></g><g fill="#f35303" data-fill-palette-color="accent"><g fill="#f35303" data-fill-palette-color="accent"><path d="M299.963 422.58h-95.945c-2.209 0-3.998-1.788-3.998-3.998s1.788-3.998 3.998-3.998h95.945c2.209 0 3.998 1.788 3.998 3.998S302.172 422.58 299.963 422.58z" fill="#f35303" data-fill-palette-color="accent"></path></g></g><g fill="#f35303" data-fill-palette-color="accent"><g fill="#f35303" data-fill-palette-color="accent"><path d="M315.953 398.592c-2.209 0-3.998-1.788-3.998-3.998 0-2.209 1.789-3.998 3.998-3.998 6.615 0 11.994-5.38 11.994-11.994 0-2.209 1.789-3.998 3.998-3.998 2.211 0 3.998 1.789 3.998 3.998C335.943 389.628 326.98 398.592 315.953 398.592z" fill="#f35303" data-fill-palette-color="accent"></path></g></g><g fill="#f35303" data-fill-palette-color="accent"><g fill="#f35303" data-fill-palette-color="accent"><path d="M188.026 398.6c-11.022 0-19.99-8.972-19.99-19.998 0-2.209 1.788-3.998 3.998-3.998s3.998 1.789 3.998 3.998c0 6.622 5.38 12.002 11.994 12.002 2.21 0 3.998 1.789 3.998 3.998C192.024 396.812 190.236 398.6 188.026 398.6z" fill="#f35303" data-fill-palette-color="accent"></path></g></g><g fill="#f35303" data-fill-palette-color="accent"><g fill="#f35303" data-fill-palette-color="accent"><path d="M315.953 398.592H188.026c-2.209 0-3.998-1.788-3.998-3.998 0-2.209 1.788-3.998 3.998-3.998h127.927c2.211 0 3.998 1.789 3.998 3.998C319.951 396.804 318.164 398.592 315.953 398.592z" fill="#f35303" data-fill-palette-color="accent"></path></g></g><g fill="#f35303" data-fill-palette-color="accent"><g fill="#f35303" data-fill-palette-color="accent"><path d="M172.039 374.604c-11.022 0-19.99-8.964-19.99-19.989s8.968-19.99 19.99-19.99c2.21 0 3.998 1.788 3.998 3.998s-1.788 3.998-3.998 3.998c-6.614 0-11.994 5.38-11.994 11.994s5.38 11.994 11.994 11.994c2.21 0 3.998 1.788 3.998 3.998S174.249 374.604 172.039 374.604z" fill="#f35303" data-fill-palette-color="accent"></path></g></g><g fill="#f35303" data-fill-palette-color="accent"><g fill="#f35303" data-fill-palette-color="accent"><path d="M331.961 374.604c-2.209 0-3.998-1.787-3.998-3.997s1.789-3.998 3.998-3.998c6.615 0 11.994-5.38 11.994-11.994s-5.379-11.994-11.994-11.994c-2.209 0-3.998-1.788-3.998-3.998s1.789-3.998 3.998-3.998c11.025 0 19.99 8.965 19.99 19.99S342.986 374.604 331.961 374.604z" fill="#f35303" data-fill-palette-color="accent"></path></g></g><g fill="#f35303" data-fill-palette-color="accent"><g fill="#f35303" data-fill-palette-color="accent"><path d="M331.961 342.62H172.039c-2.21 0-3.998-1.788-3.998-3.998s1.788-3.998 3.998-3.998h159.922c2.211 0 3.998 1.788 3.998 3.998S334.172 342.62 331.961 342.62z" fill="#f35303" data-fill-palette-color="accent"></path></g></g><g fill="#f35303" data-fill-palette-color="accent"><g fill="#f35303" data-fill-palette-color="accent"><path d="M331.961 374.604H172.039c-2.21 0-3.998-1.787-3.998-3.997s1.788-3.998 3.998-3.998h159.922c2.211 0 3.998 1.788 3.998 3.998S334.172 374.604 331.961 374.604z" fill="#f35303" data-fill-palette-color="accent"></path></g></g><g fill="#f35303" data-fill-palette-color="accent"><g fill="#f35303" data-fill-palette-color="accent"><path d="M252.002 246.661c-2.209 0-3.998-1.788-3.998-3.998v-63.96c0-2.21 1.789-3.998 3.998-3.998 2.21 0 3.998 1.788 3.998 3.998v63.96C256 244.873 254.212 246.661 252.002 246.661z" fill="#f35303" data-fill-palette-color="accent"></path></g></g><g fill="#f35303" data-fill-palette-color="accent"><g fill="#f35303" data-fill-palette-color="accent"><path d="M251.998 366.608c-6.614 0-11.994-5.38-11.994-11.994s5.38-11.994 11.994-11.994c6.613 0 11.994 5.38 11.994 11.994S258.611 366.608 251.998 366.608zM251.998 350.616c-2.206 0-3.998 1.796-3.998 3.998s1.792 3.998 3.998 3.998c2.206 0 3.998-1.796 3.998-3.998S254.204 350.616 251.998 350.616z" fill="#f35303" data-fill-palette-color="accent"></path></g></g></g><g fill="#f35303" data-fill-palette-color="accent"><g fill="#f35303" data-fill-palette-color="accent"><path d="M291.982 94.745H124.067c-2.21 0-3.998-1.788-3.998-3.997 0-2.211 1.788-3.998 3.998-3.998h167.916c2.209 0 3.998 1.787 3.998 3.998C295.98 92.957 294.191 94.745 291.982 94.745z" fill="#f35303" data-fill-palette-color="accent"></path></g></g><g fill="#f35303" data-fill-palette-color="accent"><g fill="#f35303" data-fill-palette-color="accent"><path d="M92.083 126.729c-2.209 0-3.998-1.788-3.998-3.998 0-19.842 16.141-35.981 35.982-35.981 2.209 0 3.998 1.787 3.998 3.998 0 2.209-1.789 3.997-3.998 3.997-15.43 0-27.986 12.557-27.986 27.986C96.081 124.941 94.292 126.729 92.083 126.729z" fill="#f35303" data-fill-palette-color="accent"></path></g></g><g fill="#f35303" data-fill-palette-color="accent"><g fill="#f35303" data-fill-palette-color="accent"><path d="M180.031 94.745c-2.21 0-3.998-1.788-3.998-3.997 0-11.026 8.968-19.998 19.994-19.998 2.209 0 3.998 1.788 3.998 3.998 0 2.209-1.789 3.998-3.998 3.998-6.614 0-11.998 5.384-11.998 12.002C184.029 92.957 182.24 94.745 180.031 94.745z" fill="#f35303" data-fill-palette-color="accent"></path></g></g><g fill="#f35303" data-fill-palette-color="accent"><g fill="#f35303" data-fill-palette-color="accent"><path d="M419.918 78.754H196.026c-2.21 0-3.998-1.789-3.998-3.998 0-2.21 1.788-3.998 3.998-3.998h223.892c2.209 0 3.996 1.788 3.996 3.998C423.914 76.965 422.127 78.754 419.918 78.754z" fill="#f35303" data-fill-palette-color="accent"></path></g></g><g fill="#f35303" data-fill-palette-color="accent"><g fill="#f35303" data-fill-palette-color="accent"><path d="M491.881 94.745H363.945c-2.209 0-3.998-1.788-3.998-3.997 0-2.211 1.789-3.998 3.998-3.998h127.936c2.209 0 3.998 1.787 3.998 3.998C495.879 92.957 494.09 94.745 491.881 94.745z" fill="#f35303" data-fill-palette-color="accent"></path></g></g><g fill="#f35303" data-fill-palette-color="accent"><g fill="#f35303" data-fill-palette-color="accent"><path d="M363.945 94.745c-11.025 0-19.99-8.968-19.99-19.989 0-2.21 1.789-3.998 3.998-3.998 2.211 0 3.998 1.788 3.998 3.998 0 6.613 5.381 11.994 11.994 11.994 2.209 0 3.998 1.787 3.998 3.998C367.943 92.957 366.154 94.745 363.945 94.745z" fill="#f35303" data-fill-palette-color="accent"></path></g></g><g fill="#f35303" data-fill-palette-color="accent"><g fill="#f35303" data-fill-palette-color="accent"><path d="M172.035 78.754c-3.202 0-6.216-1.25-8.48-3.514-2.062-2.059-4.111-5.658-5.216-9.164-1.565-4.962-1.05-9.073 1.444-11.568 1.07-1.069 3.03-2.342 6.302-2.342 5.146 0 11.498 3.174 14.434 6.117 2.26 2.261 3.51 5.275 3.51 8.477s-1.25 6.215-3.514 8.48C178.25 77.504 175.236 78.754 172.035 78.754zM166.084 60.161c-1.238 1.319 0.773 7.079 3.123 9.421 1.515 1.516 4.139 1.512 5.654 0.004 0.753-0.757 1.171-1.761 1.171-2.826 0-1.066-0.418-2.069-1.171-2.827C173.167 62.234 168.786 60.161 166.084 60.161z" fill="#f35303" data-fill-palette-color="accent"></path></g></g><g fill="#f35303" data-fill-palette-color="accent"><g fill="#f35303" data-fill-palette-color="accent"><path d="M60.099 310.637c-3.202 0-6.216-1.25-8.48-3.514-2.062-2.062-4.111-5.654-5.216-9.168-1.565-4.958-1.05-9.065 1.444-11.564 1.07-1.069 3.03-2.342 6.298-2.342 5.138 0 11.494 3.17 14.434 6.113 2.264 2.265 3.514 5.279 3.514 8.48s-1.25 6.216-3.514 8.48C66.314 309.387 63.3 310.637 60.099 310.637zM54.145 292.044c-1.234 1.32 0.777 7.075 3.127 9.425 1.515 1.516 4.139 1.516 5.653 0 0.754-0.757 1.172-1.757 1.172-2.826 0-1.07-0.418-2.069-1.172-2.827C61.227 294.121 56.843 292.044 54.145 292.044z" fill="#f35303" data-fill-palette-color="accent"></path></g></g><g fill="#f35303" data-fill-palette-color="accent"><g fill="#f35303" data-fill-palette-color="accent"><path d="M443.904 406.588c-3.201 0-6.215-1.249-8.479-3.514-2.062-2.062-4.107-5.661-5.217-9.16-1.562-4.966-1.047-9.073 1.443-11.572 1.07-1.069 3.031-2.342 6.303-2.342 5.139 0 11.494 3.17 14.43 6.114 2.266 2.265 3.514 5.278 3.514 8.479s-1.248 6.216-3.514 8.48C450.121 405.339 447.105 406.588 443.904 406.588zM437.955 387.996c-1.234 1.319 0.781 7.074 3.123 9.425 1.516 1.515 4.139 1.515 5.654 0 0.748-0.758 1.17-1.757 1.17-2.827 0-1.069-0.422-2.069-1.17-2.826C445.029 390.072 440.648 387.996 437.955 387.996z" fill="#f35303" data-fill-palette-color="accent"></path></g></g><g fill="#f35303" data-fill-palette-color="accent"><g fill="#f35303" data-fill-palette-color="accent"><path d="M441.859 225.281c-5.139 0-11.494-3.174-14.43-6.114-2.266-2.265-3.516-5.278-3.516-8.479 0-3.202 1.25-6.217 3.516-8.48 4.527-4.529 12.43-4.529 16.959 0 2.062 2.062 4.107 5.657 5.217 9.163 1.561 4.962 1.047 9.073-1.445 11.568C447.09 224.008 445.131 225.281 441.859 225.281zM435.908 206.689c-1.061 0-2.068 0.417-2.826 1.171-0.75 0.757-1.172 1.761-1.172 2.827 0 1.065 0.422 2.068 1.172 2.826 1.703 1.698 6.084 3.771 8.777 3.771 0.562 0 0.773-0.098 0.773-0.098 0.461-1.218-1.555-6.98-3.896-9.327C437.979 207.106 436.971 206.689 435.908 206.689z" fill="#f35303" data-fill-palette-color="accent"></path></g></g><g fill="#f35303" data-fill-palette-color="accent"><g fill="#f35303" data-fill-palette-color="accent"><path d="M196.03 198.693c-3.202 0-6.215-1.25-8.48-3.514-2.265-2.266-3.514-5.279-3.514-8.48s1.249-6.216 3.514-8.48c2.932-2.939 9.284-6.114 14.43-6.114 3.272 0 5.232 1.273 6.301 2.343 2.495 2.495 3.01 6.606 1.445 11.568-1.109 3.506-3.155 7.102-5.216 9.164C202.246 197.443 199.232 198.693 196.03 198.693zM202.531 179.976c-3.252 0.125-7.633 2.198-9.323 3.893-0.758 0.762-1.175 1.765-1.175 2.831 0 1.065 0.417 2.069 1.171 2.826 1.515 1.508 4.139 1.508 5.653 0C201.204 187.18 203.214 181.416 202.531 179.976z" fill="#f35303" data-fill-palette-color="accent"></path></g></g><g fill="#f35303" data-fill-palette-color="accent"><g fill="#f35303" data-fill-palette-color="accent"><path d="M275.99 70.758c-6.615 0-11.994-5.381-11.994-11.994 0-5.181 4.076-17.327 11.994-17.327s11.994 12.146 11.994 17.327C287.984 65.377 282.604 70.758 275.99 70.758zM275.834 49.413c-1.188 0.534-3.842 6.028-3.842 9.351 0 2.206 1.795 3.998 3.998 3.998 2.201 0 3.998-1.792 3.998-3.998C279.988 55.445 277.332 49.951 275.834 49.413z" fill="#f35303" data-fill-palette-color="accent"></path></g></g><g fill="#f35303" data-fill-palette-color="accent"><g fill="#f35303" data-fill-palette-color="accent"><path d="M427.912 70.762c-3.209 0-6.215-1.25-8.479-3.521-2.266-2.253-3.514-5.268-3.514-8.473s1.248-6.22 3.514-8.48c2.936-2.939 9.291-6.117 14.43-6.117 3.279 0 5.232 1.272 6.301 2.342 2.492 2.495 3.008 6.606 1.445 11.568-1.109 3.506-3.154 7.103-5.217 9.164C434.129 69.512 431.115 70.762 427.912 70.762zM434.41 52.041c-3.24 0.125-7.621 2.201-9.324 3.9-0.758 0.757-1.172 1.76-1.172 2.826s0.414 2.069 1.172 2.818c1.516 1.523 4.139 1.52 5.654 0.004C433.082 59.244 435.098 53.481 434.41 52.041z" fill="#f35303" data-fill-palette-color="accent"></path></g></g><g fill="#f35303" data-fill-palette-color="accent"><g fill="#f35303" data-fill-palette-color="accent"><path d="M334 113.666c-3.271 0-5.232-1.273-6.303-2.343-2.498-2.495-3.014-6.603-1.443-11.564 1.107-3.503 3.154-7.099 5.215-9.159 4.537-4.537 12.439-4.541 16.969 0.004 2.256 2.252 3.506 5.267 3.506 8.472 0 3.206-1.25 6.22-3.521 8.48C345.502 110.491 339.145 113.666 334 113.666zM339.957 95.077c-1.07 0-2.076 0.418-2.834 1.175-2.35 2.347-4.357 8.102-3.678 9.543L334 105.67c2.701 0 7.082-2.073 8.768-3.768 0.766-0.758 1.18-1.762 1.18-2.827s-0.414-2.069-1.164-2.819C342.02 95.495 341.02 95.077 339.957 95.077z" fill="#f35303" data-fill-palette-color="accent"></path></g></g><g fill="#f35303" data-fill-palette-color="accent"><g fill="#f35303" data-fill-palette-color="accent"><path d="M30.161 209.289c-3.271 0-5.228-1.272-6.297-2.343-2.495-2.495-3.01-6.605-1.445-11.568 1.109-3.506 3.155-7.102 5.216-9.163 4.537-4.537 12.435-4.541 16.964 0.004 2.261 2.253 3.51 5.267 3.51 8.473 0 3.205-1.249 6.219-3.518 8.479C41.659 206.111 35.307 209.289 30.161 209.289zM36.119 190.693c-1.065 0-2.073 0.418-2.83 1.175-2.347 2.347-4.357 8.109-3.674 9.55l0.546-0.125c2.698 0 7.083-2.077 8.777-3.775 0.761-0.758 1.175-1.761 1.175-2.826 0-1.066-0.414-2.069-1.167-2.819C38.184 191.111 37.185 190.693 36.119 190.693z" fill="#f35303" data-fill-palette-color="accent"></path></g></g><g fill="#f35303" data-fill-palette-color="accent"><g fill="#f35303" data-fill-palette-color="accent"><path d="M124.067 142.721H4.127c-2.21 0-3.998-1.787-3.998-3.998 0-2.209 1.788-3.997 3.998-3.997h119.939c2.209 0 3.998 1.788 3.998 3.997C128.065 140.934 126.276 142.721 124.067 142.721z" fill="#f35303" data-fill-palette-color="accent"></path></g></g><g fill="#f35303" data-fill-palette-color="accent"><g fill="#f35303" data-fill-palette-color="accent"><path d="M507.873 150.717H387.934c-2.211 0-3.998-1.788-3.998-3.998 0-2.209 1.787-3.998 3.998-3.998h119.939c2.209 0 3.998 1.789 3.998 3.998C511.871 148.929 510.082 150.717 507.873 150.717z" fill="#f35303" data-fill-palette-color="accent"></path></g></g><g fill="#f35303" data-fill-palette-color="accent"><g fill="#f35303" data-fill-palette-color="accent"><path d="M371.941 166.709c-2.209 0-3.998-1.788-3.998-3.998 0-11.021 8.965-19.99 19.99-19.99 2.209 0 3.998 1.789 3.998 3.998 0 2.21-1.789 3.998-3.998 3.998-6.613 0-11.994 5.381-11.994 11.994C375.939 164.921 374.15 166.709 371.941 166.709z" fill="#f35303" data-fill-palette-color="accent"></path></g></g><g fill="#f35303" data-fill-palette-color="accent"><g fill="#f35303" data-fill-palette-color="accent"><path d="M148.054 190.697H60.099c-2.21 0-3.998-1.788-3.998-3.998s1.788-3.998 3.998-3.998h87.955c2.21 0 3.998 1.788 3.998 3.998S150.264 190.697 148.054 190.697z" fill="#f35303" data-fill-palette-color="accent"></path></g></g><g fill="#f35303" data-fill-palette-color="accent"><g fill="#f35303" data-fill-palette-color="accent"><path d="M196.03 206.689h-87.956c-2.21 0-3.998-1.789-3.998-3.998 0-2.21 1.788-3.998 3.998-3.998h87.956c2.209 0 3.998 1.788 3.998 3.998C200.028 204.9 198.24 206.689 196.03 206.689z" fill="#f35303" data-fill-palette-color="accent"></path></g></g><g fill="#f35303" data-fill-palette-color="accent"><g fill="#f35303" data-fill-palette-color="accent"><path d="M108.075 206.689c-11.021 0-19.99-8.969-19.99-19.99 0-2.21 1.789-3.998 3.998-3.998 2.21 0 3.998 1.788 3.998 3.998 0 6.613 5.38 11.994 11.994 11.994 2.21 0 3.998 1.788 3.998 3.998C112.073 204.9 110.285 206.689 108.075 206.689z" fill="#f35303" data-fill-palette-color="accent"></path></g></g><g fill="#f35303" data-fill-palette-color="accent"><g fill="#f35303" data-fill-palette-color="accent"><path d="M60.099 190.697c-15.43 0-27.986-12.557-27.986-27.986 0-2.21 1.788-3.998 3.998-3.998s3.998 1.788 3.998 3.998c0 11.021 8.968 19.99 19.99 19.99 2.21 0 3.998 1.788 3.998 3.998S62.309 190.697 60.099 190.697z" fill="#f35303" data-fill-palette-color="accent"></path></g></g><g fill="#f35303" data-fill-palette-color="accent"><g fill="#f35303" data-fill-palette-color="accent"><path d="M315.969 182.701c-11.025 0-19.988-8.969-19.988-19.99 0-2.21 1.787-3.998 3.998-3.998 2.209 0 3.998 1.788 3.998 3.998 0 6.614 5.379 11.994 11.992 11.994 2.211 0 3.998 1.788 3.998 3.998S318.18 182.701 315.969 182.701z" fill="#f35303" data-fill-palette-color="accent"></path></g></g><g fill="#f35303" data-fill-palette-color="accent"><g fill="#f35303" data-fill-palette-color="accent"><path d="M443.904 182.701H315.969c-2.209 0-3.998-1.788-3.998-3.998s1.789-3.998 3.998-3.998h127.936c2.211 0 3.998 1.788 3.998 3.998S446.115 182.701 443.904 182.701z" fill="#f35303" data-fill-palette-color="accent"></path></g></g><g fill="#f35303" data-fill-palette-color="accent"><g fill="#f35303" data-fill-palette-color="accent"><path d="M371.941 198.693c-11.025 0-19.99-8.969-19.99-19.99 0-2.21 1.789-3.998 3.998-3.998s3.998 1.788 3.998 3.998c0 6.613 5.381 11.994 11.994 11.994 2.209 0 3.998 1.788 3.998 3.998C375.939 196.904 374.15 198.693 371.941 198.693z" fill="#f35303" data-fill-palette-color="accent"></path></g></g><g fill="#f35303" data-fill-palette-color="accent"><g fill="#f35303" data-fill-palette-color="accent"><path d="M483.885 198.693H371.941c-2.209 0-3.998-1.789-3.998-3.998 0-2.21 1.789-3.998 3.998-3.998h111.943c2.209 0 3.998 1.788 3.998 3.998C487.883 196.904 486.094 198.693 483.885 198.693z" fill="#f35303" data-fill-palette-color="accent"></path></g></g><g fill="#f35303" data-fill-palette-color="accent"><g fill="#f35303" data-fill-palette-color="accent"><g fill="#f35303" data-fill-palette-color="accent"><path d="M395.93 294.637c-3.201 0-6.217-1.25-8.48-3.514-4.67-4.686-4.67-12.291 0-16.961 4.529-4.528 12.447-4.528 16.961 0 2.264 2.266 3.514 5.279 3.514 8.48s-1.25 6.216-3.514 8.48C402.145 293.387 399.131 294.637 395.93 294.637zM395.93 278.645c-1.062 0-2.07 0.414-2.828 1.172-1.561 1.554-1.553 4.092 0 5.653 1.516 1.515 4.139 1.515 5.654 0 0.75-0.758 1.172-1.757 1.172-2.827 0-1.069-0.422-2.069-1.172-2.826C398.006 279.059 396.998 278.645 395.93 278.645z" fill="#f35303" data-fill-palette-color="accent"></path></g></g><g fill="#f35303" data-fill-palette-color="accent"><g fill="#f35303" data-fill-palette-color="accent"><path d="M401.582 280.987c-1.021 0-2.045-0.391-2.826-1.171-1.562-1.562-1.562-4.092 0-5.654l5.654-5.652c1.561-1.562 4.09-1.562 5.652 0 1.562 1.562 1.562 4.091 0 5.652l-5.652 5.654C403.629 280.597 402.605 280.987 401.582 280.987z" fill="#f35303" data-fill-palette-color="accent"></path></g></g><g fill="#f35303" data-fill-palette-color="accent"><g fill="#f35303" data-fill-palette-color="accent"><path d="M384.623 297.947c-1.023 0-2.047-0.391-2.828-1.171-1.561-1.562-1.561-4.092 0-5.653l5.654-5.653c1.562-1.562 4.092-1.562 5.652 0 1.562 1.562 1.562 4.091 0 5.653l-5.652 5.653C386.668 297.557 385.645 297.947 384.623 297.947z" fill="#f35303" data-fill-palette-color="accent"></path></g></g></g><g fill="#f35303" data-fill-palette-color="accent"><g fill="#f35303" data-fill-palette-color="accent"><g fill="#f35303" data-fill-palette-color="accent"><path d="M108.059 454.563c-3.201 0-6.216-1.249-8.48-3.514-4.673-4.685-4.669-12.29 0-16.96 4.529-4.529 12.443-4.529 16.964 0 2.261 2.265 3.51 5.278 3.51 8.48 0 3.201-1.25 6.215-3.514 8.479C114.275 453.314 111.26 454.563 108.059 454.563zM108.063 438.572c-1.07 0-2.073 0.413-2.831 1.171-1.558 1.554-1.554 4.092 0.004 5.653 1.507 1.515 4.134 1.515 5.649 0 0.753-0.758 1.171-1.757 1.171-2.826 0-1.07-0.418-2.07-1.171-2.827C110.132 438.985 109.129 438.572 108.063 438.572z" fill="#f35303" data-fill-palette-color="accent"></path></g></g><g fill="#f35303" data-fill-palette-color="accent"><g fill="#f35303" data-fill-palette-color="accent"><path d="M113.712 440.914c-1.023 0-2.046-0.391-2.827-1.171-1.562-1.562-1.562-4.092 0-5.653l5.653-5.653c1.562-1.562 4.092-1.562 5.654 0 1.562 1.562 1.562 4.092 0 5.653l-5.654 5.653C115.758 440.523 114.735 440.914 113.712 440.914z" fill="#f35303" data-fill-palette-color="accent"></path></g></g><g fill="#f35303" data-fill-palette-color="accent"><g fill="#f35303" data-fill-palette-color="accent"><path d="M96.752 457.875c-1.023 0-2.046-0.391-2.827-1.172-1.562-1.562-1.562-4.092 0-5.653l5.653-5.653c1.562-1.562 4.092-1.562 5.654 0s1.562 4.092 0 5.653l-5.654 5.653C98.798 457.484 97.775 457.875 96.752 457.875z" fill="#f35303" data-fill-palette-color="accent"></path></g></g></g></g></svg></g></svg></g></svg></g></svg></g></svg></g></svg></g><defs></defs></svg><rect width="95.481" height="80.06647804166943" fill="none" stroke="none" visibility="hidden"></rect></g></svg></g></svg>